<svg width="692" height="811" viewBox="0 0 692 811" fill="none" xmlns="http://www.w3.org/2000/svg">
<mask id="mask0_40_4886" style="mask-type:luminance" maskUnits="userSpaceOnUse" x="145" y="6" width="344" height="524">
<path d="M419.638 529.137C423.512 489.328 406.89 445.71 373.066 407.891C372.279 407.012 371.491 406.132 370.693 405.267C356.996 390.438 340.464 375.988 318.666 359.793C306.625 350.846 294.064 342.152 281.917 333.745C273.412 327.857 264.617 321.77 256.106 315.667C219.901 289.712 180.122 257.128 159.591 212.253C142.541 174.988 140.618 131.479 154.315 92.8833C167.216 56.5298 193.687 25.3467 227.515 6.35437C226.688 11.7336 226.571 17.2356 227.168 22.8107L226.277 22.4151L228.17 29.2733C229.061 33.6524 230.394 38.1208 232.133 42.5598C238.988 60.0599 252.575 78.4304 272.516 97.162C294.053 117.393 324.073 140.027 350.56 159.997C357.969 165.583 364.966 170.858 371.396 175.794C405.346 201.859 430.862 222.109 450.075 245.401C471.046 270.827 482.642 298.413 486.569 332.217C486.595 332.429 486.703 333.236 486.724 333.433C489.316 356.939 488.268 381.009 483.609 404.974C474.506 451.807 451.921 495.522 419.638 529.137Z" fill="white"/>
</mask>
<g mask="url(#mask0_40_4886)">
<path d="M419.638 529.137C423.512 489.328 406.89 445.71 373.066 407.891C372.279 407.012 371.491 406.132 370.693 405.267C356.996 390.438 340.464 375.988 318.666 359.793C306.625 350.846 294.064 342.152 281.917 333.745C273.412 327.857 264.617 321.77 256.106 315.667C219.901 289.712 180.122 257.128 159.591 212.253C142.541 174.988 140.618 131.479 154.315 92.8833C167.216 56.5298 193.687 25.3467 227.515 6.35437C226.688 11.7336 226.571 17.2356 227.168 22.8107L226.277 22.4151L228.17 29.2733C229.061 33.6524 230.394 38.1208 232.133 42.5598C238.988 60.0599 252.575 78.4304 272.516 97.162C294.053 117.393 324.073 140.027 350.56 159.997C357.969 165.583 364.966 170.858 371.396 175.794C405.346 201.859 430.862 222.109 450.075 245.401C471.046 270.827 482.642 298.413 486.569 332.217C486.595 332.429 486.703 333.236 486.724 333.433C489.316 356.939 488.268 381.009 483.609 404.974C474.506 451.807 451.921 495.522 419.638 529.137Z" fill="url(#paint0_linear_40_4886)"/>
</g>
<mask id="mask1_40_4886" style="mask-type:luminance" maskUnits="userSpaceOnUse" x="195" y="0" width="227" height="411">
<path d="M421.902 352.949C304.226 240.474 249.481 86.5826 235.277 41.3513C233.625 37.1355 232.332 32.8497 231.456 28.5092C231.43 28.4128 231.413 28.3499 231.413 28.3499C231.413 28.3499 231.423 28.355 231.426 28.357C229.58 19.1007 229.644 9.60104 232.328 0.00497437C232.328 0.00497437 108.567 132.508 316.703 362.488C316.703 362.488 316.67 362.472 316.641 362.459C335.055 376.14 352.673 390.701 368.203 407.515C368.99 408.368 369.766 409.234 370.541 410.1C379.048 383.764 398.037 365.503 421.902 352.949Z" fill="white"/>
</mask>
<g mask="url(#mask1_40_4886)">
<path d="M421.902 352.949C304.226 240.474 249.481 86.5826 235.277 41.3513C233.625 37.1355 232.332 32.8497 231.456 28.5092C231.43 28.4128 231.413 28.3499 231.413 28.3499C231.413 28.3499 231.423 28.355 231.426 28.357C229.58 19.1007 229.644 9.60104 232.328 0.00497437C232.328 0.00497437 108.567 132.508 316.703 362.488C316.703 362.488 316.67 362.472 316.641 362.459C335.055 376.14 352.673 390.701 368.203 407.515C368.99 408.368 369.766 409.234 370.541 410.1C379.048 383.764 398.037 365.503 421.902 352.949Z" fill="url(#paint1_linear_40_4886)"/>
</g>
<mask id="mask2_40_4886" style="mask-type:luminance" maskUnits="userSpaceOnUse" x="235" y="41" width="255" height="312">
<path d="M373.461 173.156C344.153 150.654 302.269 120.509 274.835 94.739C258.692 79.575 243.065 61.2359 235.275 41.3509C249.479 86.5823 304.224 240.474 421.9 352.948C442.201 342.27 466.023 335.716 489.918 331.833C481.303 257.688 438.064 222.753 373.461 173.156Z" fill="white"/>
</mask>
<g mask="url(#mask2_40_4886)">
<path d="M373.461 173.156C344.153 150.654 302.269 120.509 274.835 94.739C258.692 79.575 243.065 61.2359 235.275 41.3509C249.479 86.5823 304.224 240.474 421.9 352.948C442.201 342.27 466.023 335.716 489.918 331.833C481.303 257.688 438.064 222.753 373.461 173.156Z" fill="url(#paint2_linear_40_4886)"/>
</g>
<mask id="mask3_40_4886" style="mask-type:luminance" maskUnits="userSpaceOnUse" x="141" y="0" width="176" height="363">
<path d="M232.326 0.00601196C194.796 18.8847 165.08 52.4709 151.131 91.7763C137.183 131.082 139.154 175.677 156.518 213.628C176.543 257.396 214.806 290.18 254.125 318.368C274.804 333.194 296.213 347.283 316.639 362.46C316.668 362.473 316.702 362.489 316.702 362.489C108.566 132.509 232.326 0.00601196 232.326 0.00601196Z" fill="white"/>
</mask>
<g mask="url(#mask3_40_4886)">
<path d="M232.326 0.00601196C194.796 18.8847 165.08 52.4709 151.131 91.7763C137.183 131.082 139.154 175.677 156.518 213.628C176.543 257.396 214.806 290.18 254.125 318.368C274.804 333.194 296.213 347.283 316.639 362.46C316.668 362.473 316.702 362.489 316.702 362.489C108.566 132.509 232.326 0.00601196 232.326 0.00601196Z" fill="url(#paint3_linear_40_4886)"/>
</g>
<mask id="mask4_40_4886" style="mask-type:luminance" maskUnits="userSpaceOnUse" x="370" y="352" width="117" height="187">
<path d="M414.883 538.613C452.073 503.109 477.168 455.772 486.921 405.602C463.387 389.709 441.748 371.92 421.902 352.95C398.036 365.504 379.048 383.765 370.541 410.101C402.033 445.314 423.601 492.523 414.883 538.613Z" fill="white"/>
</mask>
<g mask="url(#mask4_40_4886)">
<path d="M414.883 538.613C452.073 503.109 477.168 455.772 486.921 405.602C463.387 389.709 441.748 371.92 421.902 352.95C398.036 365.504 379.048 383.765 370.541 410.101C402.033 445.314 423.601 492.523 414.883 538.613Z" fill="url(#paint4_linear_40_4886)"/>
</g>
<mask id="mask5_40_4886" style="mask-type:luminance" maskUnits="userSpaceOnUse" x="421" y="331" width="71" height="75">
<path d="M486.92 405.602C491.558 381.743 492.742 357.245 490.075 333.071C490.029 332.652 489.967 332.251 489.918 331.834C466.023 335.717 442.201 342.271 421.9 352.949C441.747 371.919 463.385 389.709 486.92 405.602Z" fill="white"/>
</mask>
<g mask="url(#mask5_40_4886)">
<path d="M486.92 405.602C491.558 381.743 492.742 357.245 490.075 333.071C490.029 332.652 489.967 332.251 489.918 331.834C466.023 335.717 442.201 342.271 421.9 352.949C441.747 371.919 463.385 389.709 486.92 405.602Z" fill="url(#paint5_linear_40_4886)"/>
</g>
<mask id="mask6_40_4886" style="mask-type:luminance" maskUnits="userSpaceOnUse" x="156" y="264" width="155" height="118">
<path d="M310.859 381.434C263.319 346.736 218.109 325.475 168.129 264.833C159.289 292.377 155.203 321.917 156.347 351.024C190.929 342.318 249.591 338.222 310.859 381.434Z" fill="white"/>
</mask>
<g mask="url(#mask6_40_4886)">
<path d="M310.859 381.434C263.319 346.736 218.109 325.475 168.129 264.833C159.289 292.377 155.203 321.917 156.347 351.024C190.929 342.318 249.591 338.222 310.859 381.434Z" fill="url(#paint6_linear_40_4886)"/>
</g>
<mask id="mask7_40_4886" style="mask-type:luminance" maskUnits="userSpaceOnUse" x="156" y="345" width="237" height="322">
<path d="M330.884 647.606C330.204 654.157 328.498 660.541 325.349 666.619C351.1 635.513 374.398 601.423 385.867 562.848C397.336 524.273 395.735 480.455 374.183 446.366C368.845 437.924 362.455 429.616 355.431 421.656C351.723 417.505 348.006 413.567 344.284 409.829C343.811 409.359 343.346 408.881 342.87 408.414C342.827 408.373 342.785 408.331 342.742 408.29C333.425 399.162 323.488 390.753 313.649 383.474C312.718 382.785 311.79 382.112 310.861 381.434C249.593 338.221 190.931 342.317 156.35 351.023C156.351 351.023 156.35 351.025 156.351 351.025C335.427 496.188 338.668 605.434 330.884 647.606Z" fill="white"/>
</mask>
<g mask="url(#mask7_40_4886)">
<path d="M330.884 647.606C330.204 654.157 328.498 660.541 325.349 666.619C351.1 635.513 374.398 601.423 385.867 562.848C397.336 524.273 395.735 480.455 374.183 446.366C368.845 437.924 362.455 429.616 355.431 421.656C351.723 417.505 348.006 413.567 344.284 409.829C343.811 409.359 343.346 408.881 342.87 408.414C342.827 408.373 342.785 408.331 342.742 408.29C333.425 399.162 323.488 390.753 313.649 383.474C312.718 382.785 311.79 382.112 310.861 381.434C249.593 338.221 190.931 342.317 156.35 351.023C156.351 351.023 156.35 351.025 156.351 351.025C335.427 496.188 338.668 605.434 330.884 647.606Z" fill="url(#paint7_linear_40_4886)"/>
</g>
<mask id="mask8_40_4886" style="mask-type:luminance" maskUnits="userSpaceOnUse" x="156" y="351" width="178" height="297">
<path d="M156.35 351.024C156.35 351.024 235.196 418.705 291.214 547.852C291.216 547.855 291.217 547.858 291.218 547.86C306.068 562.02 317.564 579.417 323.284 598.589C328.058 614.592 332.547 631.599 330.883 647.605C338.667 605.433 335.426 496.187 156.35 351.024Z" fill="white"/>
</mask>
<g mask="url(#mask8_40_4886)">
<path d="M156.35 351.024C156.35 351.024 235.196 418.705 291.214 547.852C291.216 547.855 291.217 547.858 291.218 547.86C306.068 562.02 317.564 579.417 323.284 598.589C328.058 614.592 332.547 631.599 330.883 647.605C338.667 605.433 335.426 496.187 156.35 351.024Z" fill="url(#paint8_linear_40_4886)"/>
</g>
<mask id="mask9_40_4886" style="mask-type:luminance" maskUnits="userSpaceOnUse" x="156" y="351" width="136" height="197">
<path d="M156.35 351.024C158.339 401.605 176.138 450.874 212.343 486.066C229.298 502.544 266.093 526.545 284.285 541.677C286.668 543.659 288.979 545.726 291.218 547.86C291.217 547.858 291.216 547.855 291.214 547.852C235.196 418.705 156.35 351.025 156.35 351.024Z" fill="white"/>
</mask>
<g mask="url(#mask9_40_4886)">
<path d="M156.35 351.024C158.339 401.605 176.138 450.874 212.343 486.066C229.298 502.544 266.093 526.545 284.285 541.677C286.668 543.659 288.979 545.726 291.218 547.86C291.217 547.858 291.216 547.855 291.214 547.852C235.196 418.705 156.35 351.025 156.35 351.024Z" fill="url(#paint9_linear_40_4886)"/>
</g>
<path d="M20.2469 684.848H46.5064C57.0863 684.848 69.7974 685.381 76.5715 697.711C81.5951 706.921 81.2145 724.199 75.7343 733.257C68.2751 745.511 52.5194 744.674 47.9525 744.674H20.2469V684.848ZM28.2389 737.519H47.2675C56.0968 737.519 64.7738 736.834 69.1885 728.69C72.5375 722.601 72.8419 707.454 69.3407 701.365C64.241 692.612 54.5745 692.003 46.278 692.003H28.2389V737.519ZM108.21 684.772H113.842L144.288 744.674H135.459L127.543 729.451H94.2806L86.3647 744.674H77.6116L108.21 684.772ZM97.9341 722.144H123.965L110.95 696.189L97.9341 722.144ZM202.342 737.519C202.342 742.238 200.058 744.674 194.35 744.674H155.607C150.279 744.674 147.768 743.304 147.768 737.519V730.212L155.684 728.842V737.519H194.35V717.045H157.282C151.573 717.045 149.29 715.751 149.29 709.89V692.003C149.29 686.218 151.573 684.848 157.282 684.848H193.741C199.83 684.848 201.733 686.294 201.733 692.003V697.559L193.741 698.853V692.003H157.282V709.89H194.35C200.287 709.89 202.342 711.336 202.342 717.045V737.519ZM210.607 684.848H218.599V710.575H261.299V684.848H269.291V744.674H261.299V718.186H218.599V744.674H210.607V684.848ZM277.579 684.848H303.838C314.418 684.848 327.129 685.381 333.904 697.711C338.927 706.921 338.547 724.199 333.066 733.257C325.607 745.511 309.851 744.674 305.285 744.674H277.579V684.848ZM285.571 737.519H304.6C313.429 737.519 322.106 736.834 326.52 728.69C329.87 722.601 330.174 707.454 326.673 701.365C321.573 692.612 311.907 692.003 303.61 692.003H285.571V737.519ZM343.807 684.848H394.043V692.003H351.799V710.27H376.765V717.425H351.799V737.519H394.423V744.674H343.807V684.848ZM401.413 684.848H409.405V737.519H449.213V744.674H401.413V684.848ZM454.783 684.848H462.775V744.674H454.783V684.848ZM467.785 684.848H476.233L500.438 733.79L524.642 684.848H533.091L503.178 744.674C503.178 744.674 497.013 744.75 497.013 744.674L467.785 684.848ZM538.107 684.848H588.343V692.003H546.099V710.27H571.065V717.425H546.099V737.519H588.723V744.674H538.107V684.848ZM634.988 713.239C640.545 713.239 641.762 711.945 641.762 707.302V698.777C641.762 693.221 640.545 692.003 634.151 692.003H603.705V713.239H634.988ZM627.834 720.394L651.733 744.674H640.773L616.797 720.394H603.705V744.674H595.713V684.848H637.652C646.558 684.848 649.754 689.796 649.754 695.504V709.814C649.754 716.36 645.492 720.317 637.576 720.394H627.834Z" fill="#223869"/>
<path d="M24.6627 791.042H22.1052V774.784C22.1052 774.388 21.9073 774.19 21.5115 774.19H16.2368V791.042H13.6794V774.19H8.40464C8.00885 774.19 7.81095 774.388 7.81095 774.784V791.042H5.25351V774.784C5.25351 773.901 5.55796 773.155 6.16688 772.546C6.77579 771.937 7.52171 771.633 8.40464 771.633H21.5115C22.3945 771.633 23.1404 771.937 23.7493 772.546C24.3582 773.155 24.6627 773.901 24.6627 774.784V791.042ZM40.0619 787.914C40.0619 788.797 39.7575 789.543 39.1485 790.152C38.5396 790.745 37.7937 791.042 36.9108 791.042H28.9416C28.0739 791.042 27.3356 790.738 26.7267 790.129C26.1178 789.52 25.8133 788.781 25.8133 787.914V786.43C25.8133 784.664 26.9626 783.377 29.2613 782.571L34.9242 781.246C36.6444 780.835 37.5045 780.264 37.5045 779.534V778.072C37.5045 777.676 37.3066 777.478 36.9108 777.478H25.8133V774.921H36.9108C37.7937 774.921 38.5396 775.225 39.1485 775.834C39.7575 776.443 40.0619 777.189 40.0619 778.072V787.914ZM37.5045 787.914V783.027C36.6672 783.408 35.5483 783.743 34.1478 784.032C31.7122 784.549 30.3117 784.877 29.9463 785.014C28.8807 785.379 28.3479 785.851 28.3479 786.43V787.914C28.3479 788.31 28.5458 788.507 28.9416 788.507H36.9108C37.3066 788.507 37.5045 788.31 37.5045 787.914ZM44.191 774.076H41.6336V771.633H44.191V774.076ZM44.191 791.042H41.6336V774.921H44.191V791.042ZM60.1094 786.43L60.0865 787.891C60.0713 788.774 59.7593 789.52 59.1503 790.129C58.5566 790.738 57.8259 791.042 56.9582 791.042H45.8379V788.485H56.9582C57.354 788.485 57.5519 788.287 57.5519 787.891V786.43C57.5519 785.684 56.6842 785.105 54.9488 784.694C54.0963 784.496 52.2087 784.062 49.2859 783.393C46.9873 782.586 45.8379 781.299 45.8379 779.534V778.049C45.8379 777.166 46.1424 776.428 46.7513 775.834C47.3602 775.225 48.1061 774.921 48.9891 774.921H60.0865V777.456H48.9891C48.5933 777.456 48.3954 777.654 48.3954 778.049V779.534C48.3954 780.249 49.2631 780.82 50.9985 781.246C51.2573 781.307 53.1449 781.748 56.6614 782.571C58.9905 783.377 60.1398 784.664 60.1094 786.43ZM86.7786 787.891C86.7786 788.774 86.4742 789.52 85.8652 790.129C85.2715 790.738 84.5332 791.042 83.6503 791.042H75.6811C74.7982 791.042 74.0523 790.738 73.4434 790.129C72.8345 789.52 72.53 788.774 72.53 787.891V778.049C72.53 777.166 72.8345 776.428 73.4434 775.834C74.0523 775.225 74.7982 774.921 75.6811 774.921H83.6503C83.8482 774.921 84.0461 774.936 84.244 774.967V771.633H86.7786V787.891ZM84.244 787.891V778.049C84.244 777.654 84.0461 777.456 83.6503 777.456H75.6811C75.2853 777.456 75.0874 777.654 75.0874 778.049V787.891C75.0874 788.287 75.2853 788.485 75.6811 788.485H83.6503C84.0461 788.485 84.244 788.287 84.244 787.891ZM102.165 787.891C102.165 788.774 101.861 789.52 101.252 790.129C100.658 790.738 99.9196 791.042 99.0367 791.042H91.0675C90.1846 791.042 89.4387 790.738 88.8298 790.129C88.2209 789.52 87.9164 788.774 87.9164 787.891V778.049C87.9164 777.166 88.2209 776.428 88.8298 775.834C89.4387 775.225 90.1846 774.921 91.0675 774.921H99.0367C99.9044 774.921 100.643 775.225 101.252 775.834C101.861 776.443 102.165 777.182 102.165 778.049V787.891ZM99.6304 787.891V778.049C99.6304 777.654 99.4325 777.456 99.0367 777.456H91.0675C90.6717 777.456 90.4738 777.654 90.4738 778.049V787.891C90.4738 788.287 90.6717 788.485 91.0675 788.485H99.0367C99.4325 788.485 99.6304 788.287 99.6304 787.891ZM128.835 787.891C128.835 788.774 128.53 789.52 127.921 790.129C127.328 790.738 126.589 791.042 125.706 791.042H123.081V794.33H120.523V791.042H117.737C116.854 791.042 116.108 790.738 115.5 790.129C114.891 789.52 114.586 788.774 114.586 787.891V778.049C114.586 777.166 114.891 776.428 115.5 775.834C116.108 775.225 116.854 774.921 117.737 774.921H125.706C126.574 774.921 127.312 775.225 127.921 775.834C128.53 776.443 128.835 777.182 128.835 778.049V787.891ZM126.3 787.891V778.049C126.3 777.654 126.102 777.456 125.706 777.456H117.737C117.342 777.456 117.144 777.654 117.144 778.049V787.891C117.144 788.287 117.342 788.485 117.737 788.485H125.706C126.102 788.485 126.3 788.287 126.3 787.891ZM144.244 774.921L144.221 787.891C144.221 788.774 143.917 789.52 143.308 790.129C142.714 790.738 141.976 791.042 141.093 791.042H133.124C132.241 791.042 131.495 790.738 130.886 790.129C130.277 789.52 129.973 788.774 129.973 787.891V774.921H132.53V787.891C132.53 788.287 132.728 788.485 133.124 788.485H141.093C141.489 788.485 141.687 788.287 141.687 787.891V774.921H144.244ZM159.63 791.042H148.532C147.649 791.042 146.904 790.738 146.295 790.129C145.686 789.52 145.381 788.774 145.381 787.891V778.049C145.381 777.166 145.686 776.428 146.295 775.834C146.904 775.225 147.649 774.921 148.532 774.921H156.502C157.369 774.921 158.108 775.225 158.717 775.834C159.325 776.443 159.63 777.182 159.63 778.049V779.534C159.63 781.299 158.481 782.586 156.182 783.393L150.519 784.717C148.799 785.128 147.939 785.699 147.939 786.43V787.891C147.939 788.287 148.137 788.485 148.532 788.485H159.63V791.042ZM157.095 779.534V778.049C157.095 777.654 156.897 777.456 156.502 777.456H148.532C148.137 777.456 147.939 777.654 147.939 778.049V782.936C148.776 782.555 149.895 782.22 151.295 781.931C153.731 781.414 155.132 781.086 155.497 780.949C156.562 780.584 157.095 780.112 157.095 779.534ZM186.3 791.042H175.202C174.319 791.042 173.573 790.738 172.964 790.129C172.355 789.52 172.051 788.774 172.051 787.891V774.784C172.051 773.901 172.355 773.155 172.964 772.546C173.573 771.937 174.319 771.633 175.202 771.633H186.3V774.19H175.202C174.806 774.19 174.608 774.388 174.608 774.784V780.059H186.3V782.616H174.608V787.891C174.608 788.287 174.806 788.485 175.202 788.485H186.3V791.042ZM201.709 791.042H199.151V778.072C199.151 777.676 198.954 777.478 198.558 777.478H190.589C190.193 777.478 189.995 777.676 189.995 778.072V791.042H187.437V778.072C187.437 777.189 187.742 776.443 188.351 775.834C188.96 775.225 189.706 774.921 190.589 774.921H198.558C199.441 774.921 200.179 775.225 200.773 775.834C201.382 776.443 201.686 777.189 201.686 778.072L201.709 791.042ZM217.095 791.042H205.997C205.114 791.042 204.368 790.738 203.76 790.129C203.151 789.52 202.846 788.774 202.846 787.891V771.633H205.404V774.921H217.095V777.456H205.404V787.891C205.404 788.287 205.601 788.485 205.997 788.485H217.095V791.042ZM232.481 782.502H229.947V778.049C229.947 777.654 229.749 777.456 229.353 777.456H221.384C220.988 777.456 220.79 777.654 220.79 778.049V791.042H218.233V778.049C218.233 777.166 218.537 776.428 219.146 775.834C219.755 775.225 220.501 774.921 221.384 774.921H229.353C230.221 774.921 230.959 775.225 231.568 775.834C232.177 776.443 232.481 777.182 232.481 778.049V782.502ZM247.868 791.042H236.77C235.887 791.042 235.141 790.738 234.532 790.129C233.923 789.52 233.619 788.774 233.619 787.891V778.049C233.619 777.166 233.923 776.428 234.532 775.834C235.141 775.225 235.887 774.921 236.77 774.921H244.739C245.607 774.921 246.345 775.225 246.954 775.834C247.563 776.443 247.868 777.182 247.868 778.049V779.534C247.868 781.299 246.718 782.586 244.42 783.393L238.757 784.717C237.036 785.128 236.176 785.699 236.176 786.43V787.891C236.176 788.287 236.374 788.485 236.77 788.485H247.868V791.042ZM245.333 779.534V778.049C245.333 777.654 245.135 777.456 244.739 777.456H236.77C236.374 777.456 236.176 777.654 236.176 778.049V782.936C237.014 782.555 238.133 782.22 239.533 781.931C241.969 781.414 243.369 781.086 243.735 780.949C244.8 780.584 245.333 780.112 245.333 779.534ZM263.254 794.33H260.719V790.996C260.521 791.027 260.324 791.042 260.126 791.042H252.156C251.274 791.042 250.528 790.738 249.919 790.129C249.31 789.52 249.005 788.774 249.005 787.891V778.049C249.005 777.166 249.31 776.428 249.919 775.834C250.528 775.225 251.274 774.921 252.156 774.921H260.126C260.993 774.921 261.732 775.225 262.341 775.834C262.95 776.443 263.254 777.182 263.254 778.049V794.33ZM260.719 787.891V778.049C260.719 777.654 260.521 777.456 260.126 777.456H252.156C251.761 777.456 251.563 777.654 251.563 778.049V787.891C251.563 788.287 251.761 788.485 252.156 788.485H260.126C260.521 788.485 260.719 788.287 260.719 787.891ZM278.35 787.914C278.35 788.797 278.046 789.543 277.437 790.152C276.828 790.745 276.082 791.042 275.199 791.042H267.23C266.362 791.042 265.624 790.738 265.015 790.129C264.406 789.52 264.102 788.781 264.102 787.914V786.43C264.102 784.664 265.251 783.377 267.55 782.571L273.213 781.246C274.933 780.835 275.793 780.264 275.793 779.534V778.072C275.793 777.676 275.595 777.478 275.199 777.478H264.102V774.921H275.199C276.082 774.921 276.828 775.225 277.437 775.834C278.046 776.443 278.35 777.189 278.35 778.072V787.914ZM275.793 787.914V783.027C274.956 783.408 273.837 783.743 272.436 784.032C270.001 784.549 268.6 784.877 268.235 785.014C267.169 785.379 266.636 785.851 266.636 786.43V787.914C266.636 788.31 266.834 788.507 267.23 788.507H275.199C275.595 788.507 275.793 788.31 275.793 787.914ZM282.046 793.325H279.488V788.256H282.046V793.325ZM308.745 771.633L308.722 787.891C308.722 788.774 308.417 789.52 307.809 790.129C307.215 790.738 306.477 791.042 305.594 791.042H297.624C296.742 791.042 295.996 790.738 295.387 790.129C294.778 789.52 294.473 788.774 294.473 787.891V771.633H297.031V787.891C297.031 788.287 297.229 788.485 297.624 788.485H305.594C305.989 788.485 306.187 788.287 306.187 787.891V771.633H308.745ZM328.957 791.042H326.399V778.049C326.399 777.654 326.201 777.456 325.806 777.456H320.531V791.042H317.973V777.456H312.699C312.303 777.456 312.105 777.654 312.105 778.049V791.042H309.548V778.049C309.548 777.166 309.852 776.428 310.461 775.834C311.07 775.225 311.816 774.921 312.699 774.921H325.806C326.688 774.921 327.434 775.225 328.043 775.834C328.652 776.428 328.957 777.166 328.957 778.049V791.042ZM344.356 787.914C344.356 788.797 344.051 789.543 343.443 790.152C342.834 790.745 342.088 791.042 341.205 791.042H333.236C332.368 791.042 331.63 790.738 331.021 790.129C330.412 789.52 330.107 788.781 330.107 787.914V786.43C330.107 784.664 331.257 783.377 333.555 782.571L339.218 781.246C340.938 780.835 341.798 780.264 341.798 779.534V778.072C341.798 777.676 341.601 777.478 341.205 777.478H330.107V774.921H341.205C342.088 774.921 342.834 775.225 343.443 775.834C344.051 776.443 344.356 777.189 344.356 778.072V787.914ZM341.798 787.914V783.027C340.961 783.408 339.842 783.743 338.442 784.032C336.006 784.549 334.606 784.877 334.24 785.014C333.175 785.379 332.642 785.851 332.642 786.43V787.914C332.642 788.31 332.84 788.507 333.236 788.507H341.205C341.601 788.507 341.798 788.31 341.798 787.914ZM371.026 791.042H359.928C359.045 791.042 358.299 790.738 357.69 790.129C357.082 789.52 356.777 788.774 356.777 787.891V774.784C356.777 773.901 357.082 773.155 357.69 772.546C358.299 771.937 359.045 771.633 359.928 771.633H371.026V774.19H359.928C359.532 774.19 359.335 774.388 359.335 774.784V780.059H371.026V782.616H359.335V787.891C359.335 788.287 359.532 788.485 359.928 788.485H371.026V791.042ZM386.435 791.042H383.9L383.877 786.43C383.877 785.836 383.238 785.326 381.959 784.9C381.807 784.839 380.924 784.618 379.311 784.237C377.088 784.755 375.787 785.143 375.406 785.402C374.904 785.737 374.652 786.49 374.652 787.663C374.652 787.845 374.66 788.317 374.675 789.078C374.69 789.824 374.698 790.479 374.698 791.042H372.163V786.43C372.163 784.938 372.986 783.788 374.63 782.982C372.986 782.16 372.163 781.01 372.163 779.534V774.944H374.721V779.534C374.721 780.127 375.36 780.637 376.639 781.063C376.791 781.109 377.682 781.322 379.311 781.703C380.909 781.322 381.792 781.109 381.959 781.063C383.238 780.622 383.877 780.112 383.877 779.534V774.944H386.435V779.534C386.435 781.01 385.613 782.16 383.969 782.982C385.613 783.788 386.435 784.938 386.435 786.43V791.042ZM401.821 787.891C401.821 788.774 401.516 789.52 400.907 790.129C400.314 790.738 399.575 791.042 398.692 791.042H390.723C390.525 791.042 390.328 791.027 390.13 790.996V794.33H387.572V778.049C387.572 777.166 387.877 776.428 388.486 775.834C389.094 775.225 389.84 774.921 390.723 774.921H398.692C399.56 774.921 400.298 775.225 400.907 775.834C401.516 776.443 401.821 777.182 401.821 778.049V787.891ZM399.286 787.891V778.049C399.286 777.654 399.088 777.456 398.692 777.456H390.723C390.328 777.456 390.13 777.654 390.13 778.049V787.891C390.13 788.287 390.328 788.485 390.723 788.485H398.692C399.088 788.485 399.286 788.287 399.286 787.891ZM417.207 791.042H406.11C405.227 791.042 404.481 790.738 403.872 790.129C403.263 789.52 402.959 788.774 402.959 787.891V778.049C402.959 777.166 403.263 776.428 403.872 775.834C404.481 775.225 405.227 774.921 406.11 774.921H414.079C414.947 774.921 415.685 775.225 416.294 775.834C416.903 776.443 417.207 777.182 417.207 778.049V779.534C417.207 781.299 416.058 782.586 413.759 783.393L408.096 784.717C406.376 785.128 405.516 785.699 405.516 786.43V787.891C405.516 788.287 405.714 788.485 406.11 788.485H417.207V791.042ZM414.673 779.534V778.049C414.673 777.654 414.475 777.456 414.079 777.456H406.11C405.714 777.456 405.516 777.654 405.516 778.049V782.936C406.353 782.555 407.472 782.22 408.873 781.931C411.308 781.414 412.709 781.086 413.074 780.949C414.14 780.584 414.673 780.112 414.673 779.534ZM432.594 782.502H430.059V778.049C430.059 777.654 429.861 777.456 429.465 777.456H421.496C421.1 777.456 420.902 777.654 420.902 778.049V791.042H418.345V778.049C418.345 777.166 418.649 776.428 419.258 775.834C419.867 775.225 420.613 774.921 421.496 774.921H429.465C430.333 774.921 431.071 775.225 431.68 775.834C432.289 776.443 432.594 777.182 432.594 778.049V782.502ZM436.723 774.076H434.165V771.633H436.723V774.076ZM436.723 791.042H434.165V774.921H436.723V791.042ZM450.769 774.373H447.64L445.494 772.409L443.347 774.373H440.219L444.421 769.578H446.567L450.769 774.373ZM452.618 791.042H441.521C440.638 791.042 439.892 790.738 439.283 790.129C438.674 789.52 438.37 788.774 438.37 787.891V778.049C438.37 777.166 438.674 776.428 439.283 775.834C439.892 775.225 440.638 774.921 441.521 774.921H449.49C450.358 774.921 451.096 775.225 451.705 775.834C452.314 776.443 452.618 777.182 452.618 778.049V779.534C452.618 781.299 451.469 782.586 449.17 783.393L443.507 784.717C441.787 785.128 440.927 785.699 440.927 786.43V787.891C440.927 788.287 441.125 788.485 441.521 788.485H452.618V791.042ZM450.084 779.534V778.049C450.084 777.654 449.886 777.456 449.49 777.456H441.521C441.125 777.456 440.927 777.654 440.927 778.049V782.936C441.764 782.555 442.883 782.22 444.284 781.931C446.719 781.414 448.12 781.086 448.485 780.949C449.551 780.584 450.084 780.112 450.084 779.534ZM468.027 791.042H465.47V778.072C465.47 777.676 465.272 777.478 464.876 777.478H456.907C456.511 777.478 456.313 777.676 456.313 778.072V791.042H453.756V778.072C453.756 777.189 454.06 776.443 454.669 775.834C455.278 775.225 456.024 774.921 456.907 774.921H464.876C465.759 774.921 466.498 775.225 467.091 775.834C467.7 776.443 468.005 777.189 468.005 778.072L468.027 791.042ZM483.413 791.042H472.316C471.433 791.042 470.687 790.738 470.078 790.129C469.469 789.52 469.165 788.774 469.165 787.891V778.049C469.165 777.166 469.469 776.428 470.078 775.834C470.687 775.225 471.433 774.921 472.316 774.921H483.413V777.456H472.316C471.92 777.456 471.722 777.654 471.722 778.049V787.891C471.722 788.287 471.92 788.485 472.316 788.485H483.413V791.042ZM487.542 774.076H484.985V771.633H487.542V774.076ZM487.542 791.042H484.985V774.921H487.542V791.042ZM503.438 787.914C503.438 788.797 503.133 789.543 502.525 790.152C501.916 790.745 501.17 791.042 500.287 791.042H492.318C491.45 791.042 490.712 790.738 490.103 790.129C489.494 789.52 489.189 788.781 489.189 787.914V786.43C489.189 784.664 490.339 783.377 492.637 782.571L498.3 781.246C500.02 780.835 500.88 780.264 500.88 779.534V778.072C500.88 777.676 500.683 777.478 500.287 777.478H489.189V774.921H500.287C501.17 774.921 501.916 775.225 502.525 775.834C503.133 776.443 503.438 777.189 503.438 778.072V787.914ZM500.88 787.914V783.027C500.043 783.408 498.924 783.743 497.524 784.032C495.088 784.549 493.688 784.877 493.322 785.014C492.257 785.379 491.724 785.851 491.724 786.43V787.914C491.724 788.31 491.922 788.507 492.318 788.507H500.287C500.683 788.507 500.88 788.31 500.88 787.914ZM530.108 787.891C530.108 788.774 529.803 789.52 529.194 790.129C528.601 790.738 527.862 791.042 526.979 791.042H519.01C518.127 791.042 517.381 790.738 516.772 790.129C516.164 789.52 515.859 788.774 515.859 787.891V778.049C515.859 777.166 516.164 776.428 516.772 775.834C517.381 775.225 518.127 774.921 519.01 774.921H526.979C527.177 774.921 527.375 774.936 527.573 774.967V771.633H530.108V787.891ZM527.573 787.891V778.049C527.573 777.654 527.375 777.456 526.979 777.456H519.01C518.614 777.456 518.417 777.654 518.417 778.049V787.891C518.417 788.287 518.614 788.485 519.01 788.485H526.979C527.375 788.485 527.573 788.287 527.573 787.891ZM545.494 791.042H534.397C533.514 791.042 532.768 790.738 532.159 790.129C531.55 789.52 531.246 788.774 531.246 787.891V778.049C531.246 777.166 531.55 776.428 532.159 775.834C532.768 775.225 533.514 774.921 534.397 774.921H542.366C543.234 774.921 543.972 775.225 544.581 775.834C545.19 776.443 545.494 777.182 545.494 778.049V779.534C545.494 781.299 544.345 782.586 542.046 783.393L536.383 784.717C534.663 785.128 533.803 785.699 533.803 786.43V787.891C533.803 788.287 534.001 788.485 534.397 788.485H545.494V791.042ZM542.96 779.534V778.049C542.96 777.654 542.762 777.456 542.366 777.456H534.397C534.001 777.456 533.803 777.654 533.803 778.049V782.936C534.64 782.555 535.759 782.22 537.16 781.931C539.595 781.414 540.996 781.086 541.361 780.949C542.427 780.584 542.96 780.112 542.96 779.534ZM572.187 771.633L572.164 788.485C572.164 789.231 571.935 789.847 571.479 790.334C571.022 790.806 570.428 791.042 569.698 791.042C569.439 791.042 569.173 791.004 568.899 790.928L560.929 788.804C558.92 788.271 557.915 786.993 557.915 784.968V771.633H560.473V785.356C560.473 785.554 560.549 785.752 560.701 785.95C560.853 786.133 561.021 786.247 561.203 786.293C562.558 786.734 563.905 787.183 565.245 787.64C566.843 788.173 568.206 788.439 569.332 788.439C569.53 788.439 569.629 788.332 569.629 788.119V771.633H572.187ZM587.238 791.042H576.141C575.258 791.042 574.512 790.738 573.903 790.129C573.294 789.52 572.989 788.774 572.989 787.891V778.049C572.989 777.166 573.294 776.428 573.903 775.834C574.512 775.225 575.258 774.921 576.141 774.921H584.11C584.977 774.921 585.716 775.225 586.325 775.834C586.934 776.443 587.238 777.182 587.238 778.049V779.534C587.238 781.299 586.089 782.586 583.79 783.393L578.127 784.717C576.407 785.128 575.547 785.699 575.547 786.43V787.891C575.547 788.287 575.745 788.485 576.141 788.485H587.238V791.042ZM584.703 779.534V778.049C584.703 777.654 584.506 777.456 584.11 777.456H576.141C575.745 777.456 575.547 777.654 575.547 778.049V782.936C576.384 782.555 577.503 782.22 578.904 781.931C581.339 781.414 582.74 781.086 583.105 780.949C584.171 780.584 584.703 780.112 584.703 779.534ZM590.933 791.042H588.376V771.633H590.933V791.042ZM605.947 787.891C605.947 788.774 605.643 789.52 605.034 790.129C604.44 790.738 603.702 791.042 602.819 791.042H594.85C593.967 791.042 593.221 790.738 592.612 790.129C592.003 789.52 591.698 788.774 591.698 787.891V778.049C591.698 777.166 592.003 776.428 592.612 775.834C593.221 775.225 593.967 774.921 594.85 774.921H602.819C603.686 774.921 604.425 775.225 605.034 775.834C605.643 776.443 605.947 777.182 605.947 778.049V787.891ZM603.412 787.891V778.049C603.412 777.654 603.215 777.456 602.819 777.456H594.85C594.454 777.456 594.256 777.654 594.256 778.049V787.891C594.256 788.287 594.454 788.485 594.85 788.485H602.819C603.215 788.485 603.412 788.287 603.412 787.891ZM621.334 791.042H610.236C609.353 791.042 608.607 790.738 607.998 790.129C607.389 789.52 607.085 788.774 607.085 787.891V778.049C607.085 777.166 607.389 776.428 607.998 775.834C608.607 775.225 609.353 774.921 610.236 774.921H621.334V777.456H610.236C609.84 777.456 609.642 777.654 609.642 778.049V787.891C609.642 788.287 609.84 788.485 610.236 788.485H621.334V791.042ZM625.463 774.076H622.905V771.633H625.463V774.076ZM625.463 791.042H622.905V774.921H625.463V791.042ZM641.358 787.891C641.358 788.774 641.054 789.52 640.445 790.129C639.851 790.738 639.113 791.042 638.23 791.042H630.261C629.378 791.042 628.632 790.738 628.023 790.129C627.414 789.52 627.109 788.774 627.109 787.891V778.049C627.109 777.166 627.414 776.428 628.023 775.834C628.632 775.225 629.378 774.921 630.261 774.921H638.23C638.428 774.921 638.626 774.936 638.823 774.967V771.633H641.358V787.891ZM638.823 787.891V778.049C638.823 777.654 638.626 777.456 638.23 777.456H630.261C629.865 777.456 629.667 777.654 629.667 778.049V787.891C629.667 788.287 629.865 788.485 630.261 788.485H638.23C638.626 788.485 638.823 788.287 638.823 787.891ZM656.745 787.914C656.745 788.797 656.44 789.543 655.831 790.152C655.222 790.745 654.476 791.042 653.593 791.042H645.624C644.757 791.042 644.018 790.738 643.409 790.129C642.8 789.52 642.496 788.781 642.496 787.914V786.43C642.496 784.664 643.645 783.377 645.944 782.571L651.607 781.246C653.327 780.835 654.187 780.264 654.187 779.534V778.072C654.187 777.676 653.989 777.478 653.593 777.478H642.496V774.921H653.593C654.476 774.921 655.222 775.225 655.831 775.834C656.44 776.443 656.745 777.189 656.745 778.072V787.914ZM654.187 787.914V783.027C653.35 783.408 652.231 783.743 650.83 784.032C648.395 784.549 646.994 784.877 646.629 785.014C645.563 785.379 645.031 785.851 645.031 786.43V787.914C645.031 788.31 645.228 788.507 645.624 788.507H653.593C653.989 788.507 654.187 788.31 654.187 787.914ZM672.131 787.891C672.131 788.774 671.826 789.52 671.217 790.129C670.624 790.738 669.885 791.042 669.003 791.042H661.033C660.15 791.042 659.405 790.738 658.796 790.129C658.187 789.52 657.882 788.774 657.882 787.891V778.049C657.882 777.166 658.187 776.428 658.796 775.834C659.405 775.225 660.15 774.921 661.033 774.921H669.003C669.2 774.921 669.398 774.936 669.596 774.967V771.633H672.131V787.891ZM669.596 787.891V778.049C669.596 777.654 669.398 777.456 669.003 777.456H661.033C660.638 777.456 660.44 777.654 660.44 778.049V787.891C660.44 788.287 660.638 788.485 661.033 788.485H669.003C669.398 788.485 669.596 788.287 669.596 787.891ZM687.517 791.042H676.42C675.537 791.042 674.791 790.738 674.182 790.129C673.573 789.52 673.269 788.774 673.269 787.891V778.049C673.269 777.166 673.573 776.428 674.182 775.834C674.791 775.225 675.537 774.921 676.42 774.921H684.389C685.257 774.921 685.995 775.225 686.604 775.834C687.213 776.443 687.517 777.182 687.517 778.049V779.534C687.517 781.299 686.368 782.586 684.069 783.393L678.406 784.717C676.686 785.128 675.826 785.699 675.826 786.43V787.891C675.826 788.287 676.024 788.485 676.42 788.485H687.517V791.042ZM684.983 779.534V778.049C684.983 777.654 684.785 777.456 684.389 777.456H676.42C676.024 777.456 675.826 777.654 675.826 778.049V782.936C676.663 782.555 677.782 782.22 679.183 781.931C681.618 781.414 683.019 781.086 683.384 780.949C684.45 780.584 684.983 780.112 684.983 779.534ZM690.878 791.042H688.321V788.256H690.878V791.042Z" fill="#F9A72C"/>
<defs>
<linearGradient id="paint0_linear_40_4886" x1="316.687" y1="529.137" x2="316.687" y2="6.35437" gradientUnits="userSpaceOnUse">
<stop stop-color="#42AFC7"/>
<stop offset="0.438776" stop-color="#3694A0"/>
<stop offset="1" stop-color="#2D7A90"/>
</linearGradient>
<linearGradient id="paint1_linear_40_4886" x1="141.923" y1="205.053" x2="491.484" y2="205.053" gradientUnits="userSpaceOnUse">
<stop stop-color="#2D7A90"/>
<stop offset="0.561224" stop-color="#3694A0"/>
<stop offset="1" stop-color="#42AFC7"/>
</linearGradient>
<linearGradient id="paint2_linear_40_4886" x1="313.507" y1="214.635" x2="406.9" y2="160.14" gradientUnits="userSpaceOnUse">
<stop stop-color="#2D7A90"/>
<stop offset="0.423469" stop-color="#3694A0"/>
<stop offset="1" stop-color="#3FAEB5"/>
</linearGradient>
<linearGradient id="paint3_linear_40_4886" x1="171.072" y1="240.211" x2="321.328" y2="152.537" gradientUnits="userSpaceOnUse">
<stop stop-color="#2D7A90"/>
<stop offset="0.392857" stop-color="#3694A0"/>
<stop offset="1" stop-color="#73D0C4"/>
</linearGradient>
<linearGradient id="paint4_linear_40_4886" x1="428.73" y1="538.613" x2="428.73" y2="352.951" gradientUnits="userSpaceOnUse">
<stop stop-color="#B3E4CF"/>
<stop offset="0.438776" stop-color="#40B9B3"/>
<stop offset="1" stop-color="#2D7A90"/>
</linearGradient>
<linearGradient id="paint5_linear_40_4886" x1="456.689" y1="405.602" x2="456.689" y2="331.834" gradientUnits="userSpaceOnUse">
<stop stop-color="#42AFC7"/>
<stop offset="0.438776" stop-color="#3694A0"/>
<stop offset="1" stop-color="#2D7A90"/>
</linearGradient>
<linearGradient id="paint6_linear_40_4886" x1="156.16" y1="323.134" x2="310.859" y2="323.134" gradientUnits="userSpaceOnUse">
<stop stop-color="#FBC808"/>
<stop offset="0.607143" stop-color="#F25D1B"/>
<stop offset="1" stop-color="#F03C20"/>
</linearGradient>
<linearGradient id="paint7_linear_40_4886" x1="156.35" y1="506.011" x2="392.915" y2="506.011" gradientUnits="userSpaceOnUse">
<stop stop-color="#F03C20"/>
<stop offset="0.392857" stop-color="#F25D1B"/>
<stop offset="1" stop-color="#F9A72C"/>
</linearGradient>
<linearGradient id="paint8_linear_40_4886" x1="156.35" y1="499.314" x2="333.098" y2="499.314" gradientUnits="userSpaceOnUse">
<stop stop-color="#F03C20"/>
<stop offset="0.392857" stop-color="#F25D1B"/>
<stop offset="1" stop-color="#FAD206"/>
</linearGradient>
<linearGradient id="paint9_linear_40_4886" x1="223.783" y1="547.86" x2="223.783" y2="351.024" gradientUnits="userSpaceOnUse">
<stop stop-color="#F03C20"/>
<stop offset="0.392857" stop-color="#F25D1B"/>
<stop offset="1" stop-color="#F9A72C"/>
</linearGradient>
</defs>
</svg>
